<?xml version="1.0" standalone="no"?>
<!DOCTYPE svg PUBLIC "-//W3C//DTD SVG 20010904//EN"
 "http://www.w3.org/TR/2001/REC-SVG-20010904/DTD/svg10.dtd">
<svg version="1.0" xmlns="http://www.w3.org/2000/svg"
 width="40" height="40" viewBox="0 0 40.000000 40.000000"
 preserveAspectRatio="xMidYMid meet">

<g transform="translate(0.000000,40.000000) scale(0.100000,-0.100000)"
fill="#303030" stroke="none">
<path d="M105 383 c-77 -40 -109 -99 -103 -188 4 -72 30 -117 86 -156 50 -34
162 -35 210 -1 58 42 85 88 90 152 9 123 -72 210 -192 210 -36 -1 -74 -7 -91
-17z m65 -168 l24 -25 28 27 c41 39 48 19 8 -22 l-34 -35 -33 32 c-18 18 -33
36 -33 40 0 15 16 8 40 -17z"/>
</g>
</svg>
